<mxfile host="app.diagrams.net" agent="Mozilla/5.0 (Windows NT 10.0; Win64; x64) AppleWebKit/537.36 (KHTML, like Gecko) Chrome/134.0.0.0 Safari/537.36" version="25.0.3">
  <diagram name="第 1 页" id="aF-D-xFm9hjW3DpA5KZO">
    <mxGraphModel dx="2074" dy="1140" grid="1" gridSize="10" guides="1" tooltips="1" connect="1" arrows="1" fold="1" page="1" pageScale="1" pageWidth="827" pageHeight="1169" math="0" shadow="0">
      <root>
        <mxCell id="0" />
        <mxCell id="1" parent="0" />
        <mxCell id="9brOxjFqvNkZofY6pRL2-17" value="" style="rounded=1;whiteSpace=wrap;html=1;fillColor=none;dashed=1;arcSize=10;" parent="1" vertex="1">
          <mxGeometry y="50" width="320" height="300" as="geometry" />
        </mxCell>
        <mxCell id="jY0MVFQjws3qoYvzmMKZ-19" value="" style="rounded=0;whiteSpace=wrap;html=1;fillColor=none;" parent="1" vertex="1">
          <mxGeometry x="190" y="260" width="120" height="70" as="geometry" />
        </mxCell>
        <mxCell id="jY0MVFQjws3qoYvzmMKZ-18" value="" style="rounded=0;whiteSpace=wrap;html=1;fillColor=none;" parent="1" vertex="1">
          <mxGeometry x="190" y="160" width="120" height="100" as="geometry" />
        </mxCell>
        <mxCell id="9Jl-oer965fHboKhlvtl-1" value="&lt;font style=&quot;font-size: 16px;&quot;&gt;User Application&lt;/font&gt;" style="rounded=0;whiteSpace=wrap;html=1;fillColor=none;" parent="1" vertex="1">
          <mxGeometry x="10" width="120" height="40" as="geometry" />
        </mxCell>
        <mxCell id="9Jl-oer965fHboKhlvtl-19" value="&lt;font style=&quot;font-size: 18px;&quot;&gt;Block device driver&lt;/font&gt;" style="rounded=0;whiteSpace=wrap;html=1;fillColor=none;" parent="1" vertex="1">
          <mxGeometry x="10" y="380" width="310" height="40" as="geometry" />
        </mxCell>
        <mxCell id="9Jl-oer965fHboKhlvtl-32" value="&lt;font&gt;HALF kernel module&lt;/font&gt;" style="rounded=0;whiteSpace=wrap;html=1;fillColor=none;strokeColor=none;" parent="1" vertex="1">
          <mxGeometry x="80" y="50" width="120" height="20" as="geometry" />
        </mxCell>
        <mxCell id="9Jl-oer965fHboKhlvtl-35" value="" style="endArrow=classic;html=1;rounded=0;exitX=0.066;exitY=0.975;exitDx=0;exitDy=0;exitPerimeter=0;" parent="1" source="9Jl-oer965fHboKhlvtl-19" edge="1">
          <mxGeometry width="50" height="50" relative="1" as="geometry">
            <mxPoint x="40" y="430" as="sourcePoint" />
            <mxPoint x="30" y="440" as="targetPoint" />
          </mxGeometry>
        </mxCell>
        <mxCell id="9Jl-oer965fHboKhlvtl-36" value="" style="endArrow=classic;html=1;rounded=0;entryX=0.5;entryY=0;entryDx=0;entryDy=0;entryPerimeter=0;" parent="1" edge="1">
          <mxGeometry width="50" height="50" relative="1" as="geometry">
            <mxPoint x="120" y="420" as="sourcePoint" />
            <mxPoint x="120" y="440" as="targetPoint" />
          </mxGeometry>
        </mxCell>
        <mxCell id="9Jl-oer965fHboKhlvtl-37" value="" style="endArrow=classic;html=1;rounded=0;exitX=0.613;exitY=1;exitDx=0;exitDy=0;exitPerimeter=0;entryX=0.5;entryY=0;entryDx=0;entryDy=0;entryPerimeter=0;" parent="1" source="9Jl-oer965fHboKhlvtl-19" edge="1">
          <mxGeometry width="50" height="50" relative="1" as="geometry">
            <mxPoint x="230" y="390" as="sourcePoint" />
            <mxPoint x="200" y="440" as="targetPoint" />
          </mxGeometry>
        </mxCell>
        <mxCell id="9Jl-oer965fHboKhlvtl-38" value="" style="endArrow=classic;html=1;rounded=0;entryX=0.5;entryY=0;entryDx=0;entryDy=0;entryPerimeter=0;" parent="1" edge="1">
          <mxGeometry width="50" height="50" relative="1" as="geometry">
            <mxPoint x="290" y="420" as="sourcePoint" />
            <mxPoint x="290" y="440" as="targetPoint" />
          </mxGeometry>
        </mxCell>
        <mxCell id="jY0MVFQjws3qoYvzmMKZ-2" value="A1" style="rounded=0;whiteSpace=wrap;html=1;fillColor=none;" parent="1" vertex="1">
          <mxGeometry x="210" y="180" width="20" height="20" as="geometry" />
        </mxCell>
        <mxCell id="jY0MVFQjws3qoYvzmMKZ-3" value="A2" style="rounded=0;whiteSpace=wrap;html=1;fillColor=none;" parent="1" vertex="1">
          <mxGeometry x="230" y="180" width="20" height="20" as="geometry" />
        </mxCell>
        <mxCell id="jY0MVFQjws3qoYvzmMKZ-4" value="" style="rounded=0;whiteSpace=wrap;html=1;fillColor=none;" parent="1" vertex="1">
          <mxGeometry x="250" y="180" width="20" height="20" as="geometry" />
        </mxCell>
        <mxCell id="jY0MVFQjws3qoYvzmMKZ-5" value="A3" style="rounded=0;whiteSpace=wrap;html=1;fillColor=none;" parent="1" vertex="1">
          <mxGeometry x="270" y="180" width="20" height="20" as="geometry" />
        </mxCell>
        <mxCell id="jY0MVFQjws3qoYvzmMKZ-6" value="B1" style="rounded=0;whiteSpace=wrap;html=1;fillColor=none;" parent="1" vertex="1">
          <mxGeometry x="210" y="220" width="20" height="20" as="geometry" />
        </mxCell>
        <mxCell id="jY0MVFQjws3qoYvzmMKZ-7" value="B2" style="rounded=0;whiteSpace=wrap;html=1;fillColor=none;" parent="1" vertex="1">
          <mxGeometry x="230" y="220" width="20" height="20" as="geometry" />
        </mxCell>
        <mxCell id="jY0MVFQjws3qoYvzmMKZ-8" value="B3" style="rounded=0;whiteSpace=wrap;html=1;fillColor=none;" parent="1" vertex="1">
          <mxGeometry x="250" y="220" width="20" height="20" as="geometry" />
        </mxCell>
        <mxCell id="jY0MVFQjws3qoYvzmMKZ-9" value="P" style="rounded=0;whiteSpace=wrap;html=1;fillColor=none;" parent="1" vertex="1">
          <mxGeometry x="270" y="220" width="20" height="20" as="geometry" />
        </mxCell>
        <mxCell id="jY0MVFQjws3qoYvzmMKZ-10" value="" style="rounded=0;whiteSpace=wrap;html=1;fillColor=none;" parent="1" vertex="1">
          <mxGeometry x="210" y="270" width="20" height="20" as="geometry" />
        </mxCell>
        <mxCell id="jY0MVFQjws3qoYvzmMKZ-11" value="B1" style="rounded=0;whiteSpace=wrap;html=1;fillColor=none;" parent="1" vertex="1">
          <mxGeometry x="230" y="270" width="20" height="20" as="geometry" />
        </mxCell>
        <mxCell id="jY0MVFQjws3qoYvzmMKZ-12" value="B2" style="rounded=0;whiteSpace=wrap;html=1;fillColor=none;" parent="1" vertex="1">
          <mxGeometry x="250" y="270" width="20" height="20" as="geometry" />
        </mxCell>
        <mxCell id="jY0MVFQjws3qoYvzmMKZ-13" value="B3" style="rounded=0;whiteSpace=wrap;html=1;fillColor=none;" parent="1" vertex="1">
          <mxGeometry x="270" y="270" width="20" height="20" as="geometry" />
        </mxCell>
        <mxCell id="jY0MVFQjws3qoYvzmMKZ-14" value="A3" style="rounded=0;whiteSpace=wrap;html=1;fillColor=none;" parent="1" vertex="1">
          <mxGeometry x="210" y="300" width="20" height="20" as="geometry" />
        </mxCell>
        <mxCell id="jY0MVFQjws3qoYvzmMKZ-15" value="A1" style="rounded=0;whiteSpace=wrap;html=1;fillColor=none;" parent="1" vertex="1">
          <mxGeometry x="230" y="300" width="20" height="20" as="geometry" />
        </mxCell>
        <mxCell id="jY0MVFQjws3qoYvzmMKZ-16" value="A2" style="rounded=0;whiteSpace=wrap;html=1;fillColor=none;" parent="1" vertex="1">
          <mxGeometry x="250" y="300" width="20" height="20" as="geometry" />
        </mxCell>
        <mxCell id="jY0MVFQjws3qoYvzmMKZ-17" value="" style="rounded=0;whiteSpace=wrap;html=1;fillColor=none;" parent="1" vertex="1">
          <mxGeometry x="270" y="300" width="20" height="20" as="geometry" />
        </mxCell>
        <mxCell id="jY0MVFQjws3qoYvzmMKZ-22" value="" style="endArrow=classic;html=1;rounded=0;" parent="1" edge="1">
          <mxGeometry width="50" height="50" relative="1" as="geometry">
            <mxPoint x="180" y="190" as="sourcePoint" />
            <mxPoint x="210" y="190" as="targetPoint" />
          </mxGeometry>
        </mxCell>
        <mxCell id="jY0MVFQjws3qoYvzmMKZ-25" value="" style="endArrow=classic;html=1;rounded=0;entryX=0;entryY=0.5;entryDx=0;entryDy=0;" parent="1" target="jY0MVFQjws3qoYvzmMKZ-14" edge="1">
          <mxGeometry width="50" height="50" relative="1" as="geometry">
            <mxPoint x="180" y="310" as="sourcePoint" />
            <mxPoint x="310" y="190" as="targetPoint" />
          </mxGeometry>
        </mxCell>
        <mxCell id="jY0MVFQjws3qoYvzmMKZ-26" value="" style="endArrow=none;html=1;rounded=0;exitX=1;exitY=0.5;exitDx=0;exitDy=0;" parent="1" source="jY0MVFQjws3qoYvzmMKZ-13" edge="1">
          <mxGeometry width="50" height="50" relative="1" as="geometry">
            <mxPoint x="370" y="275" as="sourcePoint" />
            <mxPoint x="300" y="280" as="targetPoint" />
          </mxGeometry>
        </mxCell>
        <mxCell id="jY0MVFQjws3qoYvzmMKZ-27" value="" style="endArrow=none;html=1;rounded=0;" parent="1" edge="1">
          <mxGeometry width="50" height="50" relative="1" as="geometry">
            <mxPoint x="300" y="280" as="sourcePoint" />
            <mxPoint x="300" y="230" as="targetPoint" />
          </mxGeometry>
        </mxCell>
        <mxCell id="jY0MVFQjws3qoYvzmMKZ-28" value="" style="endArrow=classic;html=1;rounded=0;entryX=1;entryY=0.5;entryDx=0;entryDy=0;strokeWidth=0.25;" parent="1" target="jY0MVFQjws3qoYvzmMKZ-9" edge="1">
          <mxGeometry width="50" height="50" relative="1" as="geometry">
            <mxPoint x="300" y="230" as="sourcePoint" />
            <mxPoint x="310" y="190" as="targetPoint" />
          </mxGeometry>
        </mxCell>
        <mxCell id="jY0MVFQjws3qoYvzmMKZ-29" value="&lt;font style=&quot;font-size: 10px;&quot;&gt;data stream&lt;/font&gt;" style="rounded=0;whiteSpace=wrap;html=1;fillColor=none;strokeColor=none;" parent="1" vertex="1">
          <mxGeometry x="110" y="200" width="60" height="20" as="geometry" />
        </mxCell>
        <mxCell id="jY0MVFQjws3qoYvzmMKZ-30" value="&lt;font style=&quot;font-size: 10px;&quot;&gt;replica stream&lt;/font&gt;" style="rounded=0;whiteSpace=wrap;html=1;fillColor=none;strokeColor=none;" parent="1" vertex="1">
          <mxGeometry x="110" y="240" width="70" height="20" as="geometry" />
        </mxCell>
        <mxCell id="jY0MVFQjws3qoYvzmMKZ-31" value="&lt;font style=&quot;font-size: 10px;&quot;&gt;write back parity&lt;/font&gt;" style="rounded=0;whiteSpace=wrap;html=1;fillColor=none;strokeColor=none;" parent="1" vertex="1">
          <mxGeometry x="220" y="240" width="80" height="20" as="geometry" />
        </mxCell>
        <mxCell id="jY0MVFQjws3qoYvzmMKZ-34" value="RAID-5 part" style="rounded=0;whiteSpace=wrap;html=1;fillColor=none;strokeColor=none;" parent="1" vertex="1">
          <mxGeometry x="210" y="140" width="80" height="20" as="geometry" />
        </mxCell>
        <mxCell id="jY0MVFQjws3qoYvzmMKZ-35" value="RAID-10 mirror" style="rounded=0;whiteSpace=wrap;html=1;fillColor=none;strokeColor=none;" parent="1" vertex="1">
          <mxGeometry x="200" y="330" width="100" height="20" as="geometry" />
        </mxCell>
        <mxCell id="jY0MVFQjws3qoYvzmMKZ-40" value="" style="endArrow=classic;html=1;rounded=0;entryX=0.484;entryY=-0.075;entryDx=0;entryDy=0;exitX=0.5;exitY=1;exitDx=0;exitDy=0;entryPerimeter=0;" parent="1" source="9brOxjFqvNkZofY6pRL2-17" target="9Jl-oer965fHboKhlvtl-19" edge="1">
          <mxGeometry width="50" height="50" relative="1" as="geometry">
            <mxPoint x="170" y="360" as="sourcePoint" />
            <mxPoint x="110" y="390" as="targetPoint" />
          </mxGeometry>
        </mxCell>
        <mxCell id="jY0MVFQjws3qoYvzmMKZ-41" value="submit_bio()" style="rounded=0;whiteSpace=wrap;html=1;fillColor=none;strokeColor=none;" parent="1" vertex="1">
          <mxGeometry x="82" y="352" width="80" height="20" as="geometry" />
        </mxCell>
        <mxCell id="jY0MVFQjws3qoYvzmMKZ-42" value="1" style="rounded=0;whiteSpace=wrap;html=1;fillColor=none;" parent="1" vertex="1">
          <mxGeometry x="10" y="200" width="20" height="20" as="geometry" />
        </mxCell>
        <mxCell id="jY0MVFQjws3qoYvzmMKZ-43" value="" style="rounded=0;whiteSpace=wrap;html=1;fillColor=none;" parent="1" vertex="1">
          <mxGeometry x="30" y="200" width="80" height="20" as="geometry" />
        </mxCell>
        <mxCell id="jY0MVFQjws3qoYvzmMKZ-44" value="2" style="rounded=0;whiteSpace=wrap;html=1;fillColor=none;" parent="1" vertex="1">
          <mxGeometry x="10" y="220" width="20" height="20" as="geometry" />
        </mxCell>
        <mxCell id="jY0MVFQjws3qoYvzmMKZ-45" value="" style="rounded=0;whiteSpace=wrap;html=1;fillColor=none;" parent="1" vertex="1">
          <mxGeometry x="30" y="220" width="80" height="20" as="geometry" />
        </mxCell>
        <mxCell id="jY0MVFQjws3qoYvzmMKZ-46" value="3" style="rounded=0;whiteSpace=wrap;html=1;fillColor=none;" parent="1" vertex="1">
          <mxGeometry x="10" y="240" width="20" height="20" as="geometry" />
        </mxCell>
        <mxCell id="jY0MVFQjws3qoYvzmMKZ-47" value="" style="rounded=0;whiteSpace=wrap;html=1;fillColor=none;" parent="1" vertex="1">
          <mxGeometry x="30" y="240" width="80" height="20" as="geometry" />
        </mxCell>
        <mxCell id="jY0MVFQjws3qoYvzmMKZ-48" value="4" style="rounded=0;whiteSpace=wrap;html=1;fillColor=none;" parent="1" vertex="1">
          <mxGeometry x="10" y="260" width="20" height="20" as="geometry" />
        </mxCell>
        <mxCell id="jY0MVFQjws3qoYvzmMKZ-49" value="" style="rounded=0;whiteSpace=wrap;html=1;fillColor=none;" parent="1" vertex="1">
          <mxGeometry x="30" y="260" width="80" height="20" as="geometry" />
        </mxCell>
        <mxCell id="jY0MVFQjws3qoYvzmMKZ-55" value="index" style="rounded=0;whiteSpace=wrap;html=1;fillColor=none;strokeColor=none;" parent="1" vertex="1">
          <mxGeometry y="180" width="40" height="20" as="geometry" />
        </mxCell>
        <mxCell id="jY0MVFQjws3qoYvzmMKZ-56" value="tag" style="rounded=0;whiteSpace=wrap;html=1;fillColor=none;strokeColor=none;" parent="1" vertex="1">
          <mxGeometry x="50" y="180" width="40" height="20" as="geometry" />
        </mxCell>
        <mxCell id="jY0MVFQjws3qoYvzmMKZ-57" value="Mapping Table" style="rounded=0;whiteSpace=wrap;html=1;fillColor=none;strokeColor=none;" parent="1" vertex="1">
          <mxGeometry x="20" y="280" width="80" height="20" as="geometry" />
        </mxCell>
        <mxCell id="jY0MVFQjws3qoYvzmMKZ-61" value="" style="endArrow=none;html=1;rounded=0;exitX=1;exitY=0.25;exitDx=0;exitDy=0;" parent="1" source="jY0MVFQjws3qoYvzmMKZ-45" edge="1">
          <mxGeometry width="50" height="50" relative="1" as="geometry">
            <mxPoint x="70" y="370" as="sourcePoint" />
            <mxPoint x="180" y="225" as="targetPoint" />
          </mxGeometry>
        </mxCell>
        <mxCell id="jY0MVFQjws3qoYvzmMKZ-62" value="" style="endArrow=none;html=1;rounded=0;exitX=1;exitY=0.75;exitDx=0;exitDy=0;" parent="1" source="jY0MVFQjws3qoYvzmMKZ-45" edge="1">
          <mxGeometry width="50" height="50" relative="1" as="geometry">
            <mxPoint x="70" y="370" as="sourcePoint" />
            <mxPoint x="180" y="235" as="targetPoint" />
          </mxGeometry>
        </mxCell>
        <mxCell id="jY0MVFQjws3qoYvzmMKZ-64" value="" style="endArrow=none;html=1;rounded=0;" parent="1" edge="1">
          <mxGeometry width="50" height="50" relative="1" as="geometry">
            <mxPoint x="180" y="190" as="sourcePoint" />
            <mxPoint x="180" y="225" as="targetPoint" />
          </mxGeometry>
        </mxCell>
        <mxCell id="jY0MVFQjws3qoYvzmMKZ-65" value="" style="endArrow=none;html=1;rounded=0;" parent="1" edge="1">
          <mxGeometry width="50" height="50" relative="1" as="geometry">
            <mxPoint x="180" y="310" as="sourcePoint" />
            <mxPoint x="180" y="235" as="targetPoint" />
          </mxGeometry>
        </mxCell>
        <mxCell id="9brOxjFqvNkZofY6pRL2-1" value="Dispatcher" style="rhombus;whiteSpace=wrap;html=1;fillColor=none;" parent="1" vertex="1">
          <mxGeometry x="20" y="100" width="80" height="40" as="geometry" />
        </mxCell>
        <mxCell id="9brOxjFqvNkZofY6pRL2-2" value="" style="endArrow=classic;html=1;rounded=0;exitX=0.5;exitY=1;exitDx=0;exitDy=0;entryX=0.25;entryY=0;entryDx=0;entryDy=0;" parent="1" source="9brOxjFqvNkZofY6pRL2-1" target="jY0MVFQjws3qoYvzmMKZ-56" edge="1">
          <mxGeometry width="50" height="50" relative="1" as="geometry">
            <mxPoint x="390" y="180" as="sourcePoint" />
            <mxPoint x="440" y="130" as="targetPoint" />
          </mxGeometry>
        </mxCell>
        <mxCell id="9brOxjFqvNkZofY6pRL2-3" value="" style="endArrow=classic;html=1;rounded=0;entryX=0.5;entryY=0;entryDx=0;entryDy=0;" parent="1" target="jY0MVFQjws3qoYvzmMKZ-34" edge="1">
          <mxGeometry width="50" height="50" relative="1" as="geometry">
            <mxPoint x="250" y="120" as="sourcePoint" />
            <mxPoint x="440" y="130" as="targetPoint" />
          </mxGeometry>
        </mxCell>
        <mxCell id="9brOxjFqvNkZofY6pRL2-4" value="" style="endArrow=none;html=1;rounded=0;exitX=1;exitY=0.5;exitDx=0;exitDy=0;" parent="1" source="9brOxjFqvNkZofY6pRL2-1" edge="1">
          <mxGeometry width="50" height="50" relative="1" as="geometry">
            <mxPoint x="146.76" y="80.51999999999998" as="sourcePoint" />
            <mxPoint x="250" y="120" as="targetPoint" />
          </mxGeometry>
        </mxCell>
        <mxCell id="9brOxjFqvNkZofY6pRL2-6" value="Chunker" style="rounded=0;whiteSpace=wrap;html=1;fillColor=none;" parent="1" vertex="1">
          <mxGeometry x="210" y="60" width="80" height="40" as="geometry" />
        </mxCell>
        <mxCell id="9brOxjFqvNkZofY6pRL2-7" value="" style="endArrow=classic;html=1;rounded=0;entryX=0.5;entryY=0;entryDx=0;entryDy=0;" parent="1" target="9brOxjFqvNkZofY6pRL2-1" edge="1">
          <mxGeometry width="50" height="50" relative="1" as="geometry">
            <mxPoint x="60" y="80" as="sourcePoint" />
            <mxPoint x="440" y="30" as="targetPoint" />
          </mxGeometry>
        </mxCell>
        <mxCell id="9brOxjFqvNkZofY6pRL2-8" value="" style="endArrow=none;html=1;rounded=0;entryX=0;entryY=0.5;entryDx=0;entryDy=0;" parent="1" target="9brOxjFqvNkZofY6pRL2-6" edge="1">
          <mxGeometry width="50" height="50" relative="1" as="geometry">
            <mxPoint x="60" y="80" as="sourcePoint" />
            <mxPoint x="440" y="30" as="targetPoint" />
          </mxGeometry>
        </mxCell>
        <mxCell id="9brOxjFqvNkZofY6pRL2-9" value="" style="rounded=0;whiteSpace=wrap;html=1;fillColor=none;strokeColor=default;" parent="1" vertex="1">
          <mxGeometry x="90" y="85" width="20" height="10" as="geometry" />
        </mxCell>
        <mxCell id="9brOxjFqvNkZofY6pRL2-10" value="" style="rounded=0;whiteSpace=wrap;html=1;fillColor=none;strokeColor=default;" parent="1" vertex="1">
          <mxGeometry x="110" y="85" width="20" height="10" as="geometry" />
        </mxCell>
        <mxCell id="9brOxjFqvNkZofY6pRL2-11" value="" style="rounded=0;whiteSpace=wrap;html=1;fillColor=none;strokeColor=default;" parent="1" vertex="1">
          <mxGeometry x="130" y="85" width="20" height="10" as="geometry" />
        </mxCell>
        <mxCell id="9brOxjFqvNkZofY6pRL2-12" value="" style="rounded=0;whiteSpace=wrap;html=1;fillColor=none;strokeColor=default;" parent="1" vertex="1">
          <mxGeometry x="150" y="85" width="20" height="10" as="geometry" />
        </mxCell>
        <mxCell id="9brOxjFqvNkZofY6pRL2-13" value="" style="rounded=0;whiteSpace=wrap;html=1;fillColor=none;strokeColor=default;" parent="1" vertex="1">
          <mxGeometry x="170" y="85" width="20" height="10" as="geometry" />
        </mxCell>
        <mxCell id="9brOxjFqvNkZofY6pRL2-14" value="" style="endArrow=none;html=1;rounded=0;exitX=1;exitY=0.5;exitDx=0;exitDy=0;" parent="1" source="9Jl-oer965fHboKhlvtl-1" edge="1">
          <mxGeometry width="50" height="50" relative="1" as="geometry">
            <mxPoint x="390" y="230" as="sourcePoint" />
            <mxPoint x="250" y="20" as="targetPoint" />
          </mxGeometry>
        </mxCell>
        <mxCell id="9brOxjFqvNkZofY6pRL2-15" value="" style="endArrow=classic;html=1;rounded=0;entryX=0.5;entryY=0;entryDx=0;entryDy=0;" parent="1" target="9brOxjFqvNkZofY6pRL2-6" edge="1">
          <mxGeometry width="50" height="50" relative="1" as="geometry">
            <mxPoint x="250" y="20" as="sourcePoint" />
            <mxPoint x="440" y="180" as="targetPoint" />
          </mxGeometry>
        </mxCell>
        <mxCell id="9brOxjFqvNkZofY6pRL2-16" value="&lt;font style=&quot;font-size: 10px;&quot;&gt;request buffer&lt;/font&gt;" style="rounded=0;whiteSpace=wrap;html=1;fillColor=none;" parent="1" vertex="1">
          <mxGeometry x="140" y="25" width="100" height="10" as="geometry" />
        </mxCell>
        <mxCell id="9brOxjFqvNkZofY6pRL2-18" value="&lt;font style=&quot;font-size: 10px;&quot;&gt;read request&lt;/font&gt;" style="rounded=0;whiteSpace=wrap;html=1;fillColor=none;strokeColor=none;" parent="1" vertex="1">
          <mxGeometry x="130" y="120" width="60" height="20" as="geometry" />
        </mxCell>
        <mxCell id="9brOxjFqvNkZofY6pRL2-19" value="&lt;font style=&quot;font-size: 10px;&quot;&gt;write request&lt;/font&gt;" style="rounded=0;whiteSpace=wrap;html=1;fillColor=none;strokeColor=none;" parent="1" vertex="1">
          <mxGeometry y="145" width="60" height="20" as="geometry" />
        </mxCell>
        <mxCell id="9brOxjFqvNkZofY6pRL2-20" value="&lt;font style=&quot;font-size: 10px;&quot;&gt;system call&lt;/font&gt;" style="rounded=0;whiteSpace=wrap;html=1;fillColor=none;strokeColor=none;" parent="1" vertex="1">
          <mxGeometry x="160" width="60" height="20" as="geometry" />
        </mxCell>
        <mxCell id="9brOxjFqvNkZofY6pRL2-21" value="&lt;font style=&quot;font-size: 10px;&quot;&gt;fixed-size chunks&lt;/font&gt;" style="rounded=0;whiteSpace=wrap;html=1;fillColor=none;strokeColor=none;" parent="1" vertex="1">
          <mxGeometry x="100" y="90" width="80" height="20" as="geometry" />
        </mxCell>
        <mxCell id="Ysm6DC7pa5YaWN6NHyCM-1" value="" style="sketch=0;pointerEvents=1;shadow=0;dashed=0;html=1;strokeColor=none;fillColor=#434445;aspect=fixed;labelPosition=center;verticalLabelPosition=bottom;verticalAlign=top;align=center;outlineConnect=0;shape=mxgraph.vvd.ssd;" vertex="1" parent="1">
          <mxGeometry x="10.000000000000025" y="440" width="56.34" height="40" as="geometry" />
        </mxCell>
        <mxCell id="Ysm6DC7pa5YaWN6NHyCM-2" value="" style="sketch=0;pointerEvents=1;shadow=0;dashed=0;html=1;strokeColor=none;fillColor=#434445;aspect=fixed;labelPosition=center;verticalLabelPosition=bottom;verticalAlign=top;align=center;outlineConnect=0;shape=mxgraph.vvd.ssd;" vertex="1" parent="1">
          <mxGeometry x="93.83000000000003" y="440" width="56.34" height="40" as="geometry" />
        </mxCell>
        <mxCell id="Ysm6DC7pa5YaWN6NHyCM-3" value="" style="sketch=0;pointerEvents=1;shadow=0;dashed=0;html=1;strokeColor=none;fillColor=#434445;aspect=fixed;labelPosition=center;verticalLabelPosition=bottom;verticalAlign=top;align=center;outlineConnect=0;shape=mxgraph.vvd.ssd;" vertex="1" parent="1">
          <mxGeometry x="173.66000000000003" y="440" width="56.34" height="40" as="geometry" />
        </mxCell>
        <mxCell id="Ysm6DC7pa5YaWN6NHyCM-4" value="" style="sketch=0;pointerEvents=1;shadow=0;dashed=0;html=1;strokeColor=none;fillColor=#434445;aspect=fixed;labelPosition=center;verticalLabelPosition=bottom;verticalAlign=top;align=center;outlineConnect=0;shape=mxgraph.vvd.ssd;" vertex="1" parent="1">
          <mxGeometry x="263.66" y="440" width="56.34" height="40" as="geometry" />
        </mxCell>
      </root>
    </mxGraphModel>
  </diagram>
</mxfile>
